<svg xmlns="http://www.w3.org/2000/svg" viewBox="0 0 350 350">
  <circle stroke="white" cx="175" cy="175" r="173" fill="none" stroke-width="5"></circle>
  <path fill="white"
    d="M 185.013 174.913 C 182.918 175.958 180.964 177.259 179.197 178.791 C 177.665 180.558 176.362 182.512 175.32 184.607 C 174.278 182.512 172.973 180.558 171.442 178.791 C 169.674 177.259 167.721 175.958 165.627 174.913 C 167.676 173.557 169.621 172.046 171.442 170.396 C 172.901 168.809 174.199 167.081 175.32 165.239 C 176.44 167.081 177.738 168.809 179.197 170.396 C 181.018 172.046 182.963 173.557 185.013 174.913 Z">
  </path>
  <path fill="white"
    d="M 113.284 162.177 L 113.284 164.638 L 109.639 164.638 C 105.763 164.794 99.442 165.531 96.535 168.516 C 94.051 171.41 92.677 175.094 92.657 178.907 L 92.657 180.458 L 90.079 180.458 L 90.079 146.435 L 92.56 146.435 L 92.56 147.986 C 92.579 151.799 93.953 155.484 96.437 158.377 C 99.346 161.285 105.568 162.021 109.543 162.254 C 111.791 162.254 113.284 162.177 113.284 162.177 Z">
  </path>
  <path fill="white"
    d="M 153.51 101.265 L 153.51 248.756 L 165.957 248.756 L 165.957 251.216 L 128.58 251.216 L 128.58 248.756 L 141.394 248.756 L 141.394 101.265 L 90.738 101.265 C 86.912 101.314 83.228 102.721 80.346 105.24 C 77.44 108.148 76.703 115.437 76.469 120.167 L 76.469 124.509 L 74.066 124.509 L 74.066 98.784 L 165.957 98.784 L 165.957 101.265 L 153.51 101.265 Z M 245.167 162.254 C 251.934 158.9 260.831 150.875 260.831 131.896 C 260.831 101.265 239.604 98.784 227.236 98.784 L 185.013 98.784 L 185.013 101.265 L 197.381 101.265 L 197.381 248.756 L 185.013 248.756 L 185.013 251.216 L 231.539 251.216 C 242.278 251.216 278.066 253.155 278.066 205.195 C 278.085 170.416 256.877 163.455 245.167 162.254 Z M 231.597 248.756 L 209.517 248.756 L 209.517 101.265 L 227.236 101.265 C 234.738 101.265 252.224 105.395 252.224 131.896 C 252.224 158.397 242.745 162.177 237.626 162.177 L 237.626 164.638 L 237.782 164.638 C 248.599 164.638 265.968 163.553 265.968 205.214 C 265.968 248.756 238.557 248.756 231.558 248.756 L 231.597 248.756 Z">
  </path>
</svg>